<svg xmlns="http://www.w3.org/2000/svg" width="26.25" height="30" viewBox="0 0 26.25 30">
  <path id="icon-zip" d="M29.513,8.639a26.556,26.556,0,0,0-2.554-2.921,26.571,26.571,0,0,0-2.921-2.554c-1.511-1.108-2.244-1.236-2.664-1.236H6.842A2.346,2.346,0,0,0,4.5,4.272V29.584a2.346,2.346,0,0,0,2.344,2.344H28.4a2.346,2.346,0,0,0,2.344-2.344V11.3c0-.42-.128-1.153-1.236-2.664Zm-3.88-1.6a25.572,25.572,0,0,1,2.126,2.384h-4.51V4.918a25.561,25.561,0,0,1,2.384,2.126Zm3.241,22.54a.475.475,0,0,1-.469.469H6.842a.475.475,0,0,1-.469-.469V4.272A.475.475,0,0,1,6.842,3.8H21.374v6.562a.937.937,0,0,0,.937.938h6.563ZM10.124,3.8h3.75V5.678h-3.75Zm3.75,1.875h3.75V7.553h-3.75Zm-3.75,1.875h3.75V9.428h-3.75V7.553Zm3.75,1.875h3.75V11.3h-3.75ZM10.124,11.3h3.75v1.875h-3.75Zm3.75,1.875h3.75v1.875h-3.75Zm-3.75,1.875h3.75v1.875h-3.75V15.053Zm3.75,1.875h3.75V18.8h-3.75Zm-3.75,9.844a1.41,1.41,0,0,0,1.406,1.406h4.687a1.41,1.41,0,0,0,1.406-1.406V22.084a1.41,1.41,0,0,0-1.406-1.406H13.874V18.8h-3.75v7.969Zm5.625-2.344V26.3H12V24.428Z" transform="translate(-4.499 -1.928)"/>
</svg>
