<svg xmlns="http://www.w3.org/2000/svg" width="14" height="9.92" viewBox="0 0 14 9.92">
  <g id="Icon_feather-camera" data-name="Icon feather-camera" transform="translate(0 -4.751)">
    <path id="Path_483" data-name="Path 483" d="M12.25,14.671H1.75A1.752,1.752,0,0,1,0,12.92V6.5A1.752,1.752,0,0,1,1.75,4.751h10.5A1.752,1.752,0,0,1,14,6.5V12.92A1.752,1.752,0,0,1,12.25,14.671ZM1.75,5.918a.584.584,0,0,0-.583.584V12.92a.584.584,0,0,0,.583.584h10.5a.584.584,0,0,0,.583-.584V6.5a.584.584,0,0,0-.583-.584Z" transform="translate(0 0)" fill="#fff"/>
    <path id="Path_484" data-name="Path 484" d="M13.418,12A2.918,2.918,0,1,1,10.5,14.918,2.921,2.921,0,0,1,13.418,12Zm0,4.668a1.751,1.751,0,1,0-1.751-1.751A1.753,1.753,0,0,0,13.418,16.668Z" transform="translate(-6.418 -5.207)" fill="#fff"/>
  </g>
</svg>
