<svg xmlns="http://www.w3.org/2000/svg" width="11.671" height="11.671" viewBox="0 0 11.671 11.671">
  <g id="Icon_feather-upload" data-name="Icon feather-upload" transform="translate(-3 -3)">
    <path id="Path_690" data-name="Path 690" d="M12.92,25.668H4.751A1.753,1.753,0,0,1,3,23.918V21.584a.584.584,0,1,1,1.167,0v2.334a.584.584,0,0,0,.584.584h8.17a.584.584,0,0,0,.584-.584V21.584a.584.584,0,1,1,1.167,0v2.334A1.753,1.753,0,0,1,12.92,25.668Z" transform="translate(0 -10.997)" fill="#fff"/>
    <path id="Path_691" data-name="Path 691" d="M15.419,7.085a.582.582,0,0,1-.413-.171L12.5,4.409,10,6.914a.584.584,0,0,1-.825-.825l2.918-2.918a.584.584,0,0,1,.825,0l2.918,2.918a.584.584,0,0,1-.413,1Z" transform="translate(-3.666)" fill="#fff"/>
    <path id="Path_692" data-name="Path 692" d="M17.084,11.17a.584.584,0,0,1-.584-.584v-7a.584.584,0,0,1,1.167,0v7A.584.584,0,0,1,17.084,11.17Z" transform="translate(-8.248 0)" fill="#fff"/>
  </g>
</svg>
