<svg id="icon-bg-color" xmlns="http://www.w3.org/2000/svg" width="30" height="30" viewBox="0 0 30 30">
  <path id="Path_461" data-name="Path 461" d="M21.449,11.175,10.274,0,8.512,1.762l2.975,2.975L5.049,11.175a1.864,1.864,0,0,0,0,2.65L11.924,20.7a1.871,1.871,0,0,0,2.65,0l6.875-6.875A1.864,1.864,0,0,0,21.449,11.175ZM7.262,12.5l5.988-5.988L19.237,12.5ZM24.5,14.375S22,17.087,22,18.75a2.5,2.5,0,0,0,5,0C27,17.087,24.5,14.375,24.5,14.375Z" transform="translate(-0.749)" fill="#000000"/>
  <path id="Path_462" data-name="Path 462" d="M0,30H30v5H0Z" transform="translate(0 -5)" fill="#fff"/>
</svg>
