<svg xmlns="http://www.w3.org/2000/svg" width="12" height="12.129" viewBox="0 0 12 12.129">
  <g id="Group_4518" data-name="Group 4518" transform="translate(-0.085)">
    <path id="Path_656" data-name="Path 656" d="M7.032,7.58a3.041,3.041,0,0,0,3.032-3.032V3.032A3.032,3.032,0,1,0,4,3.032V4.548A3.041,3.041,0,0,0,7.032,7.58Z" transform="translate(-0.947)" fill="#b1b2b3"/>
    <path id="Path_657" data-name="Path 657" d="M12.073,6.83A.751.751,0,0,0,11.467,6a.71.71,0,0,0-.834.606,4.635,4.635,0,0,1-4.548,3.942A4.5,4.5,0,0,1,1.612,6.679.783.783,0,0,0,.7,6,.751.751,0,0,0,.1,6.83a6.11,6.11,0,0,0,5.23,5.155v1.592H6.843V11.985A6.031,6.031,0,0,0,12.073,6.83Z" transform="translate(0 -1.448)" fill="#b1b2b3"/>
  </g>
</svg>
