<svg xmlns="http://www.w3.org/2000/svg" width="29.993" height="30" viewBox="0 0 29.993 30">
  <path id="icon-link" d="M15.779,21a1.555,1.555,0,0,1-1.1-.457,7.328,7.328,0,0,1,0-10.352l5.76-5.76A7.32,7.32,0,1,1,30.788,14.785l-2.633,2.633a1.56,1.56,0,0,1-2.206-2.206l2.633-2.633a4.2,4.2,0,0,0-5.94-5.94l-5.76,5.76a4.2,4.2,0,0,0,0,5.94A1.56,1.56,0,0,1,15.779,21ZM10.252,32.289a7.32,7.32,0,0,1-5.176-12.5L7.709,17.16a1.56,1.56,0,0,1,2.206,2.206L7.282,22a4.2,4.2,0,0,0,5.94,5.94l5.76-5.76a4.2,4.2,0,0,0,0-5.94,1.56,1.56,0,1,1,2.206-2.206,7.328,7.328,0,0,1,0,10.352l-5.76,5.76a7.272,7.272,0,0,1-5.176,2.144Z" transform="translate(-2.936 -2.29)" fill="#000000"/>
</svg>
