<svg xmlns="http://www.w3.org/2000/svg" width="12" height="9.406" viewBox="0 0 12 9.406">
  <g id="Group_4833" data-name="Group 4833" transform="translate(-693 -266.797)">
    <path id="Subtraction_11" data-name="Subtraction 11" d="M7.5,9H1.9L3.4,7.5H7.5V3.4L9,1.9V3.3l3-1.8v6L9,5.7V7.5A1.5,1.5,0,0,1,7.5,9ZM.014,7.7h0A1.518,1.518,0,0,1,0,7.5v-6A1.5,1.5,0,0,1,1.5,0h6a1.52,1.52,0,0,1,.2.014L6.217,1.5H1.5V6.217L.015,7.7Z" transform="translate(693 267)" fill="#b1b2b3"/>
    <rect id="Rectangle_2582" data-name="Rectangle 2582" width="1.111" height="12.19" rx="0.556" transform="translate(701.62 266.797) rotate(45)" fill="red"/>
  </g>
</svg>
