<svg xmlns="http://www.w3.org/2000/svg" width="30" height="29.377" viewBox="0 0 30 29.377">
  <path id="icon-pdf" d="M15.356,4.132a14.368,14.368,0,0,1-.888,4.588c-.208.592-.45,1.173-.671,1.76a.265.265,0,0,0,0,.192,18.519,18.519,0,0,0,3.183,4.477,16.867,16.867,0,0,0,2.1,1.788.319.319,0,0,0,.215.059c.979-.167,1.951-.384,2.936-.5a11.009,11.009,0,0,1,4.693.332,6.081,6.081,0,0,1,2.37,1.361,2.9,2.9,0,0,1,.478.583,1.492,1.492,0,0,1-.461,2.117,3.889,3.889,0,0,1-1.451.552,9.046,9.046,0,0,1-3.239-.015,15.4,15.4,0,0,1-5.654-2.193.362.362,0,0,0-.314-.049c-2.241.594-4.487,1.173-6.725,1.779-.87.236-1.722.535-2.583.8a.345.345,0,0,0-.225.2,28.751,28.751,0,0,1-2.344,4.13,9.944,9.944,0,0,1-2.56,2.634,3.353,3.353,0,0,1-1.714.643A2.334,2.334,0,0,1,.11,26.378a4.69,4.69,0,0,1,1.051-1.829A14.051,14.051,0,0,1,4.589,21.79a20.7,20.7,0,0,1,3.005-1.473.336.336,0,0,0,.207-.2Q9.042,17,10.287,13.894c.412-1.032.822-2.065,1.238-3.095a.3.3,0,0,0,0-.27,15.63,15.63,0,0,1-1.277-3.79,7.759,7.759,0,0,1,.37-4.558A4.811,4.811,0,0,1,11.588.636a1.808,1.808,0,0,1,1.9-.557,1.926,1.926,0,0,1,.981.728,4.269,4.269,0,0,1,.78,2.056c.057.42.071.845.1,1.268ZM12.79,12.885l-2.5,6.465,6.493-1.707a18.217,18.217,0,0,1-3.99-4.758ZM6.33,23.074c-.073.036-.1.049-.127.064a15.157,15.157,0,0,0-2.35,1.554,7.262,7.262,0,0,0-1.495,1.528,2.841,2.841,0,0,0-.348.685.375.375,0,0,0,.477.49,1.086,1.086,0,0,0,.371-.148,9.726,9.726,0,0,0,.96-.729,11.248,11.248,0,0,0,2.052-2.658c.146-.247.29-.5.459-.785ZM12.947,2.056c-.058.075-.1.127-.141.185a4.419,4.419,0,0,0-.712,1.929,7.134,7.134,0,0,0,.15,2.5c.1.448.232.889.35,1.334l.053,0c.112-.379.233-.755.334-1.136a9.735,9.735,0,0,0,.338-3.6A3.048,3.048,0,0,0,12.947,2.056ZM21.852,18.5c0,.011,0,.022,0,.033a1.016,1.016,0,0,0,.091.051,12.689,12.689,0,0,0,2.761.855,8.2,8.2,0,0,0,2.421.123c.2-.022.39-.067.585-.1a3.828,3.828,0,0,0-1.194-.7,8.769,8.769,0,0,0-3.5-.373c-.388.026-.774.075-1.161.114Z" transform="translate(-0.019 0.004)"/>
</svg>
