<svg xmlns="http://www.w3.org/2000/svg" width="12.4" height="12.2" viewBox="0 0 12.4 12.2">
  <g id="Group_4838" data-name="Group 4838" transform="translate(-724.4 -266.172)">
    <path id="Subtraction_12" data-name="Subtraction 12" d="M6.758,12H5.242V10.425a6.284,6.284,0,0,1-2.368-.839L3.952,8.519A4.54,4.54,0,0,0,6,9a4.626,4.626,0,0,0,4.548-3.9.7.7,0,0,1,.713-.612.623.623,0,0,1,.12.012.806.806,0,0,1,.5.339.647.647,0,0,1,.105.486,6,6,0,0,1-5.23,5.1V12ZM1.192,8.1h0A5.845,5.845,0,0,1,.012,5.325a.646.646,0,0,1,.105-.486.806.806,0,0,1,.5-.34.851.851,0,0,1,.138-.011.788.788,0,0,1,.771.687,4.332,4.332,0,0,0,.729,1.874L1.192,8.1ZM6,7.5a3.039,3.039,0,0,1-.886-.131L9.032,3.492V4.5A3.02,3.02,0,0,1,6,7.5ZM3.355,5.962h0A2.965,2.965,0,0,1,2.968,4.5V3A3.036,3.036,0,0,1,8.309,1.06l-4.953,4.9Z" transform="translate(724.8 266.372)" fill="#b1b2b3"/>
    <rect id="Rectangle_2581" data-name="Rectangle 2581" width="1.111" height="15.195" rx="0.556" transform="translate(735.144 266.172) rotate(45)" fill="red"/>
  </g>
</svg>
