<svg xmlns="http://www.w3.org/2000/svg" width="10" height="7.854" viewBox="0 0 10 7.854">
  <path id="Icon_ionic-ios-undo" data-name="Icon ionic-ios-undo" d="M2.254,12.651A4.742,4.742,0,0,1,3.522,9.109,5.2,5.2,0,0,1,7.169,7.647a.09.09,0,0,0,.085-.089V5.713a.09.09,0,0,1,.138-.076L12.21,8.81a.09.09,0,0,1,0,.15L7.392,12.133a.089.089,0,0,1-.138-.076V10.236a.089.089,0,0,0-.094-.089,5.248,5.248,0,0,0-2.167.518,5.5,5.5,0,0,0-2.109,1.863,4.779,4.779,0,0,0-.478.886.1.1,0,0,1-.091.062H2.25C2.252,13.215,2.254,12.881,2.254,12.651Z" transform="translate(-2.25 -5.622)" fill="#fff"/>
</svg>
