<svg xmlns="http://www.w3.org/2000/svg" width="12" height="10.8" viewBox="0 0 12 10.8">
  <g id="Icon_material-camera-alt" data-name="Icon material-camera-alt" transform="translate(-3 -3)">
    <path id="Path_475" data-name="Path 475" d="M16.4,14.8a1.6,1.6,0,1,1-1.6-1.6A1.6,1.6,0,0,1,16.4,14.8Z" transform="translate(-5.8 -5.745)" fill="#333"/>
    <path id="Path_476" data-name="Path 476" d="M7.2,3,6.1,4.2H4.2A1.2,1.2,0,0,0,3,5.4v7.2a1.2,1.2,0,0,0,1.2,1.2h9.6A1.2,1.2,0,0,0,15,12.6V5.4a1.2,1.2,0,0,0-1.2-1.2H11.9L10.8,3ZM9,12a3,3,0,1,1,3-3A3,3,0,0,1,9,12Z" transform="translate(0 0)" fill="#333"/>
  </g>
</svg>
