<svg xmlns="http://www.w3.org/2000/svg" width="33.741" height="26.992" viewBox="0 0 33.741 26.992">
  <path id="icon-remove-format" d="M17.714,21.932h-.589l.488-1.464-3.537-2.732-1.4,4.2H10.966a.844.844,0,0,0-.844.844v1.687a.844.844,0,0,0,.844.844h6.748a.844.844,0,0,0,.844-.844V22.775A.844.844,0,0,0,17.714,21.932Zm15.7,2.22L19.875,13.686,22.468,5.9H28.68V7.592a.844.844,0,0,0,.844.844H31.21a.844.844,0,0,0,.844-.844V2.531a.844.844,0,0,0-.844-.844H9.279a.844.844,0,0,0-.844.844V4.845L2.4.178A.844.844,0,0,0,1.213.326L.178,1.659A.844.844,0,0,0,.326,2.842L31.344,26.815a.844.844,0,0,0,1.184-.148l1.035-1.332a.844.844,0,0,0-.149-1.184Zm-17.077-13.2-4.529-3.5V5.9h6.212Z" transform="translate(0 0)"/>
</svg>
