<svg xmlns="http://www.w3.org/2000/svg" width="10" height="7.854" viewBox="0 0 10 7.854">
  <path id="Icon_ionic-ios-undo" data-name="Icon ionic-ios-undo" d="M12.246,12.651a4.742,4.742,0,0,0-1.268-3.542A5.2,5.2,0,0,0,7.331,7.647a.09.09,0,0,1-.085-.089V5.713a.09.09,0,0,0-.138-.076L2.29,8.81a.09.09,0,0,0,0,.15l4.818,3.173a.089.089,0,0,0,.138-.076V10.236a.089.089,0,0,1,.094-.089,5.248,5.248,0,0,1,2.167.518,5.5,5.5,0,0,1,2.109,1.863,4.779,4.779,0,0,1,.478.886.1.1,0,0,0,.091.062h.065C12.248,13.215,12.246,12.881,12.246,12.651Z" transform="translate(-2.25 -5.622)" fill="#fff"/>
</svg>
