<svg xmlns="http://www.w3.org/2000/svg" width="19.799" height="19.799" viewBox="0 0 19.799 19.799">
  <path id="Icon_ionic-ios-close-circle" data-name="Icon ionic-ios-close-circle" d="M7,0a7,7,0,1,0,7,7A7,7,0,0,0,7,0ZM8.774,9.534,7,7.761,5.226,9.534a.538.538,0,1,1-.761-.761L6.239,7,4.466,5.226a.538.538,0,0,1,.761-.761L7,6.239,8.774,4.466a.538.538,0,0,1,.761.761L7.761,7,9.534,8.774a.54.54,0,0,1,0,.761A.534.534,0,0,1,8.774,9.534Z" transform="translate(0 9.899) rotate(-45)" fill="#b1b2b3"/>
</svg>
