<svg xmlns="http://www.w3.org/2000/svg" width="8.064" height="7.256" viewBox="0 0 8.064 7.256">
  <path id="icon-reset-btn.be18e661" d="M2.911,8.069V5.046l-1.04.993a2.267,2.267,0,0,1,.3-2.973,2.544,2.544,0,0,1,3.477,0,2.277,2.277,0,0,1,0,3.32,2.447,2.447,0,0,1-.726.481l-.3.13.59,1.259.3-.131a3.874,3.874,0,0,0,1.155-.764,3.613,3.613,0,0,0,0-5.27A3.97,3.97,0,0,0,3.908,1,3.97,3.97,0,0,0,1.149,2.088,3.591,3.591,0,0,0,.838,7.023L-.256,8.067H2.911Z" transform="translate(0.256 -1)" fill-rule="evenodd"/>
</svg>
