<svg xmlns="http://www.w3.org/2000/svg" width="29.998" height="18" viewBox="0 0 29.998 18">
  <path id="icon-doc" d="M17763-4054h-24a3,3,0,0,1-3-3v-12a3,3,0,0,1,3-3h24a3,3,0,0,1,3,3v12A3,3,0,0,1,17763-4054Zm-12.352-13a3.874,3.874,0,0,0-3.973,3.95,3.878,3.878,0,0,0,3.973,3.959,3.868,3.868,0,0,0,3.951-3.959A3.863,3.863,0,0,0,17750.648-4067Zm8.557.022a3.866,3.866,0,0,0-2.793,1.1,3.994,3.994,0,0,0-1.086,2.837,3.732,3.732,0,0,0,3.879,3.924,3.932,3.932,0,0,0,2.357-.719,3.539,3.539,0,0,0,1.307-1.974h-2.068a1.7,1.7,0,0,1-1.613.99,1.965,1.965,0,0,1-1.949-2.22,2.386,2.386,0,0,1,.543-1.624,1.823,1.823,0,0,1,1.406-.6,1.7,1.7,0,0,1,1.613.99h2.068a3.563,3.563,0,0,0-1.307-1.98A3.92,3.92,0,0,0,17759.205-4066.98Zm-20.207.089h0v7.722h2.895a4.143,4.143,0,0,0,2.949-1.073,3.766,3.766,0,0,0,1.1-2.788,3.767,3.767,0,0,0-1.1-2.792,4.144,4.144,0,0,0-2.949-1.07H17739Zm2.773,6.1h-.893v-4.49h.893a2.073,2.073,0,0,1,2.256,2.256A2.044,2.044,0,0,1,17741.771-4060.8Zm8.877-.013a2.016,2.016,0,0,1-2.047-2.243,2.373,2.373,0,0,1,.555-1.636,1.952,1.952,0,0,1,1.492-.606,2.01,2.01,0,0,1,2.033,2.243A2.01,2.01,0,0,1,17750.648-4060.809Z" transform="translate(-17736.002 4072)"/>
</svg>
