<svg xmlns="http://www.w3.org/2000/svg" width="30" height="19.091" viewBox="0 0 30 19.091">
  <g id="icon-code" transform="translate(-1.5 -7.5)">
    <path id="Path_502" data-name="Path 502" d="M23.864,26.591a1.364,1.364,0,0,1-.964-2.328l7.218-7.218L22.9,9.828A1.364,1.364,0,1,1,24.828,7.9l8.182,8.182a1.364,1.364,0,0,1,0,1.928l-8.182,8.182A1.359,1.359,0,0,1,23.864,26.591Z" transform="translate(-1.909)"/>
    <path id="Path_503" data-name="Path 503" d="M11.045,26.591a1.359,1.359,0,0,1-.964-.4L1.9,18.01a1.364,1.364,0,0,1,0-1.928L10.081,7.9A1.364,1.364,0,0,1,12.01,9.828L4.792,17.045l7.218,7.218a1.364,1.364,0,0,1-.964,2.328Z" transform="translate(0)"/>
  </g>
</svg>
